<?xml version="1.0" encoding="utf-8"?>
<!-- Generator: Adobe Illustrator 25.4.1, SVG Export Plug-In . SVG Version: 6.00 Build 0)  -->
<svg version="1.1" id="Capa_1" xmlns="http://www.w3.org/2000/svg" xmlns:xlink="http://www.w3.org/1999/xlink" x="0px" y="0px"
	 viewBox="0 0 128 128" style="enable-background:new 0 0 128 128;" xml:space="preserve">
<style type="text/css">
	.st0{fill:#FFFFFF;}
</style>
<g>
	<path class="st0" d="M68.4,58.3v-0.2c0,0.1-0.1,0.1-0.1,0.2H68.4z"/>
	<path class="st0" d="M113.2,5.9H14.8c-4.7,0-8.5,3.7-8.5,8.3v99.5c0,4.6,3.8,8.3,8.5,8.3h98.4c4.7,0,8.5-3.7,8.5-8.3V14.2
		C121.7,9.6,117.9,5.9,113.2,5.9z M41.3,103.2H23.8V50.7h17.4V103.2z M32.6,43.5L32.6,43.5h-0.1c-5.9,0-9.6-4-9.6-9.1
		c0-5.1,3.9-9.1,9.9-9.1c6,0,9.6,3.9,9.7,9.1C42.4,39.5,38.6,43.5,32.6,43.5z M104.1,103.2H86.7V75.1c0-7.1-2.5-11.9-8.8-11.9
		c-4.8,0-7.7,3.2-8.9,6.4c-0.5,1.1-0.6,2.7-0.6,4.3v29.3H50.9c0,0,0.2-47.5,0-52.5h17.4v7.4c2.3-3.6,6.5-8.7,15.7-8.7
		c11.5,0,20.1,7.5,20.1,23.6V103.2z"/>
</g>
</svg>
