<?xml version="1.0" encoding="utf-8"?>
<!-- Generator: Adobe Illustrator 25.4.1, SVG Export Plug-In . SVG Version: 6.00 Build 0)  -->
<svg version="1.1" id="Capa_1" xmlns="http://www.w3.org/2000/svg" xmlns:xlink="http://www.w3.org/1999/xlink" x="0px" y="0px"
	 viewBox="0 0 128 128" style="enable-background:new 0 0 128 128;" xml:space="preserve">
<style type="text/css">
	.st0{fill:#FFFFFF;}
</style>
<g>
	<path class="st0" d="M38.3,30.5c18.4,0,33.3,15,33.3,33.5S56.7,97.5,38.3,97.5S5,82.5,5,64S19.9,30.5,38.3,30.5z M91.4,32.5
		c9.2,0,16.6,14.1,16.6,31.5h0c0,17.4-7.4,31.5-16.6,31.5S74.8,81.4,74.8,64S82.2,32.5,91.4,32.5z M117.1,35.7
		c3.2,0,5.9,12.6,5.9,28.3c0,15.6-2.6,28.3-5.9,28.3c-3.2,0-5.8-12.7-5.8-28.3S113.9,35.7,117.1,35.7z"/>
</g>
</svg>
